# xmcd
#
# Track frame offsets: 
#        150
#        18249
#        30111
#        46948
#        59133
#        74515
#        91607
#        116724
#        133580
#        152119
#        159822
#        170337
#
# Disc length: 2943 seconds
#
# Revision: 0
# Processed by: cddbd v1.4PL0 Copyright (c) Steve Scherf et al.
# Submitted via: ExactAudioCopy v0.90b4
#
DISCID=8f0b7d0c
DTITLE=christine fellows - 2 little birds
DYEAR=2000
DGENRE=Country
TTITLE0=20 bullets
TTITLE1=cowboy
TTITLE2=red letter day
TTITLE3=monica's prelude
TTITLE4=advice
TTITLE5=ruthless
TTITLE6=hypothetical
TTITLE7=2 little birds
TTITLE8=bright blue flame
TTITLE9=fold into june
TTITLE10=boy on the cover
TTITLE11=small change - guilty by association
EXTD=
EXTT0=
EXTT1=
EXTT2=
EXTT3=
EXTT4=
EXTT5=
EXTT6=
EXTT7=
EXTT8=
EXTT9=
EXTT10=
EXTT11=
PLAYORDER=
